<svg width="15" height="15" viewBox="0 0 15 15" fill="none" xmlns="http://www.w3.org/2000/svg">
<path d="M4.652 3.34372C5.05137 3.34372 5.42075 3.37497 5.75825 3.46747C6.06451 3.52375 6.35684 3.63924 6.61887 3.80747C6.86512 3.96184 7.0495 4.17872 7.172 4.45684C7.29512 4.73497 7.35637 5.07559 7.35637 5.44622C7.35637 5.87934 7.2645 6.24997 7.0495 6.52809C6.86512 6.80684 6.55762 7.05372 6.18887 7.23934C6.71137 7.39434 7.11075 7.67247 7.35637 8.04309C7.60262 8.41434 7.75637 8.87809 7.75637 9.40372C7.75637 9.83684 7.66387 10.2075 7.51012 10.5168C7.35637 10.8262 7.11075 11.1043 6.83387 11.29C6.53312 11.4889 6.20065 11.6352 5.85075 11.7225C5.482 11.8156 5.11325 11.8775 4.7445 11.8775H0.625122V3.34372H4.652ZM4.40575 6.80622C4.74387 6.80622 5.02075 6.71372 5.23575 6.55934C5.45075 6.40497 5.54325 6.12622 5.54325 5.78622C5.54325 5.60059 5.512 5.41497 5.45075 5.29184C5.3895 5.16809 5.297 5.07497 5.1745 4.98247C5.05137 4.92059 4.92825 4.85872 4.7745 4.82809C4.62075 4.79684 4.46762 4.79684 4.28262 4.79684H2.50012V6.80684H4.40637L4.40575 6.80622ZM4.49825 10.455C4.68262 10.455 4.867 10.4237 5.02075 10.3931C5.17598 10.3636 5.3228 10.3002 5.45075 10.2075C5.57599 10.117 5.68076 10.0011 5.75825 9.86747C5.8195 9.71309 5.88137 9.52747 5.88137 9.31122C5.88137 8.87809 5.75825 8.56872 5.51262 8.35247C5.26637 8.16684 4.92825 8.07434 4.52887 8.07434H2.50012V10.4556H4.49825V10.455ZM10.4307 10.4237C10.6764 10.6712 11.0451 10.795 11.537 10.795C11.8751 10.795 12.1826 10.7025 12.4282 10.5481C12.6745 10.3625 12.8282 10.1768 12.8895 9.99122H14.3957C14.1495 10.7331 13.7807 11.2587 13.2895 11.5987C12.797 11.9081 12.2132 12.0937 11.5064 12.0937C11.0541 12.0951 10.6056 12.0111 10.1845 11.8462C9.80557 11.7041 9.46763 11.4705 9.20075 11.1662C8.91531 10.8816 8.70431 10.5311 8.58637 10.1456C8.43262 9.74372 8.37075 9.31122 8.37075 8.81622C8.37075 8.35247 8.43262 7.91997 8.58637 7.51747C8.7342 7.13002 8.95293 6.77352 9.23137 6.46622C9.50825 6.18809 9.84637 5.94122 10.2151 5.78622C10.6256 5.62126 11.064 5.53722 11.5064 5.53872C12.0289 5.53872 12.4901 5.63184 12.8895 5.84809C13.2895 6.06434 13.5964 6.31184 13.8426 6.68309C14.0938 7.03968 14.281 7.43728 14.3957 7.85809C14.457 8.29059 14.4876 8.72372 14.457 9.21809H10.0001C10.0001 9.71309 10.1845 10.1768 10.4307 10.4243V10.4237ZM12.367 7.17747C12.152 6.96122 11.8139 6.83747 11.4139 6.83747C11.1376 6.83747 10.922 6.89934 10.7376 6.99184C10.5532 7.08497 10.4307 7.20872 10.3076 7.33247C10.1945 7.452 10.1196 7.60261 10.0926 7.76497C10.0614 7.91997 10.0307 8.04309 10.0307 8.16684H12.797C12.7357 7.70309 12.582 7.39434 12.367 7.17747ZM9.662 3.93122H13.1045V4.76622H9.66262V3.93122H9.662Z" fill="#0D0D0D"/>
</svg>
