<svg width="24" height="24" viewBox="0 0 24 24" fill="none" xmlns="http://www.w3.org/2000/svg">
<circle cx="12" cy="12" r="12" fill="#D4D5D7"/>
<g clip-path="url(#clip0_203_860)">
<path d="M9.26582 8.00995C9.64922 8.00995 10.0038 8.03995 10.3278 8.12875C10.6218 8.18278 10.9025 8.29365 11.154 8.45515C11.3904 8.60335 11.5674 8.81155 11.685 9.07855C11.8032 9.34555 11.862 9.67255 11.862 10.0283C11.862 10.4441 11.7738 10.7999 11.5674 11.0669C11.3904 11.3345 11.0952 11.5715 10.7412 11.7497C11.2428 11.8985 11.6262 12.1655 11.862 12.5213C12.0984 12.8777 12.246 13.3229 12.246 13.8275C12.246 14.2433 12.1572 14.5991 12.0096 14.8961C11.862 15.1931 11.6262 15.4601 11.3604 15.6383C11.0717 15.8294 10.7525 15.9698 10.4166 16.0535C10.0626 16.1429 9.70862 16.2023 9.35462 16.2023H5.40002V8.00995H9.26582ZM9.02942 11.3339C9.35402 11.3339 9.61982 11.2451 9.82622 11.0969C10.0326 10.9487 10.1214 10.6811 10.1214 10.3547C10.1214 10.1765 10.0914 9.99835 10.0326 9.88015C9.97382 9.76135 9.88502 9.67195 9.76742 9.58315C9.64922 9.52375 9.53102 9.46435 9.38342 9.43495C9.23582 9.40495 9.08882 9.40495 8.91122 9.40495H7.20002V11.3345H9.03002L9.02942 11.3339ZM9.11822 14.8367C9.29522 14.8367 9.47222 14.8067 9.61982 14.7773C9.76885 14.749 9.90979 14.6882 10.0326 14.5991C10.1529 14.5123 10.2534 14.4011 10.3278 14.2727C10.3866 14.1245 10.446 13.9463 10.446 13.7387C10.446 13.3229 10.3278 13.0259 10.092 12.8183C9.85562 12.6401 9.53102 12.5513 9.14762 12.5513H7.20002V14.8373H9.11822V14.8367ZM14.8134 14.8067C15.0492 15.0443 15.4032 15.1631 15.8754 15.1631C16.2 15.1631 16.4952 15.0743 16.731 14.9261C16.9674 14.7479 17.115 14.5697 17.1738 14.3915H18.6198C18.3834 15.1037 18.0294 15.6083 17.5578 15.9347C17.085 16.2317 16.5246 16.4099 15.846 16.4099C15.4118 16.4113 14.9813 16.3307 14.577 16.1723C14.2133 16.0359 13.8888 15.8116 13.6326 15.5195C13.3586 15.2463 13.156 14.9098 13.0428 14.5397C12.8952 14.1539 12.8358 13.7387 12.8358 13.2635C12.8358 12.8183 12.8952 12.4031 13.0428 12.0167C13.1847 11.6448 13.3947 11.3026 13.662 11.0075C13.9278 10.7405 14.2524 10.5035 14.6064 10.3547C15.0004 10.1964 15.4214 10.1157 15.846 10.1171C16.3476 10.1171 16.7904 10.2065 17.1738 10.4141C17.5578 10.6217 17.8524 10.8593 18.0888 11.2157C18.33 11.5581 18.5097 11.9398 18.6198 12.3437C18.6786 12.7589 18.708 13.1747 18.6786 13.6493H14.4C14.4 14.1245 14.577 14.5697 14.8134 14.8073V14.8067ZM16.6722 11.6903C16.4658 11.4827 16.1412 11.3639 15.7572 11.3639C15.492 11.3639 15.285 11.4233 15.108 11.5121C14.931 11.6015 14.8134 11.7203 14.6952 11.8391C14.5866 11.9539 14.5147 12.0985 14.4888 12.2543C14.4588 12.4031 14.4294 12.5213 14.4294 12.6401H17.085C17.0262 12.1949 16.8786 11.8985 16.6722 11.6903ZM14.0754 8.57395H17.3802V9.37555H14.076V8.57395H14.0754Z" fill="#121212"/>
</g>
<defs>
<clipPath id="clip0_203_860">
<rect width="14.4" height="14.4" fill="white" transform="translate(4.79993 4.80005)"/>
</clipPath>
</defs>
</svg>
