<svg width="24" height="24" viewBox="0 0 24 24" fill="none" xmlns="http://www.w3.org/2000/svg">
<path d="M12.427 13.011C12.464 12.344 12.79 11.757 13.283 11.34C13.8006 10.9094 14.4537 10.6757 15.127 10.68C15.837 10.68 16.487 10.93 16.972 11.34C17.464 11.757 17.791 12.345 17.828 13.011C17.866 13.697 17.591 14.334 17.107 14.806C16.5742 15.3143 15.8643 15.5948 15.128 15.588C14.391 15.5952 13.6803 15.3147 13.147 14.806C12.664 14.334 12.388 13.697 12.427 13.011Z" fill="#0D0D0D"/>
<path d="M8.12402 14.3609C8.12902 14.6209 8.21302 15.1279 8.33702 15.5249C8.60719 16.3788 9.0604 17.1633 9.66502 17.8239C10.3131 18.5372 11.1048 19.1053 11.988 19.4909C12.9487 19.9148 13.988 20.1311 15.038 20.1259C16.089 20.1272 17.1285 19.9075 18.089 19.4809C18.9711 19.0906 19.7617 18.5201 20.41 17.8059C21.0134 17.1432 21.4658 16.3575 21.736 15.5029C21.8679 15.0855 21.9518 14.6544 21.986 14.2179C22.0803 12.956 21.7692 11.6968 21.098 10.6239C20.6884 9.96892 20.1652 9.39222 19.553 8.92095L19.554 8.91995L13.305 4.12095L13.289 4.10695C12.878 3.79295 12.188 3.79395 11.738 4.10895C11.281 4.42795 11.23 4.95495 11.634 5.28895L11.633 5.28995L14.239 7.41095L6.29602 7.41995H6.28402C5.62802 7.41995 4.99702 7.85195 4.87202 8.39595C4.74402 8.95095 5.19002 9.41095 5.87302 9.41295L5.87202 9.41595L9.89902 9.40795L2.71102 14.9239L2.68402 14.9449C2.00702 15.4639 1.78802 16.3269 2.21402 16.8739C2.64802 17.4299 3.56802 17.4299 4.25402 16.8759L8.17602 13.6669C8.17702 13.6669 8.12002 14.0999 8.12402 14.3609ZM18.202 15.8109C17.394 16.6349 16.264 17.1019 15.039 17.1039C13.813 17.1059 12.683 16.6429 11.874 15.8209C11.4916 15.4381 11.1968 14.9768 11.01 14.4689C10.8336 13.986 10.7657 13.4701 10.811 12.9579C10.855 12.4529 11.004 11.9709 11.245 11.5359C11.481 11.1069 11.807 10.7209 12.207 10.3919C13.0093 9.74678 14.0095 9.39786 15.039 9.40395C16.0676 9.39567 17.0676 9.74173 17.871 10.3839C18.27 10.7099 18.596 11.0949 18.832 11.5229C19.072 11.9589 19.222 12.4389 19.266 12.9439C19.3111 13.456 19.2436 13.9718 19.068 14.4549C18.8793 14.9635 18.5841 15.4259 18.202 15.8109Z" fill="#0D0D0D"/>
</svg>
