<svg width="18" height="18" viewBox="0 0 18 18" fill="#0D0D0D" xmlns="http://www.w3.org/2000/svg">
<path d="M11.592 7.25863L11.4855 7.15213C10.9836 6.66817 10.3667 6.31998 9.693 6.14038C7.51275 5.55688 5.41875 6.79213 4.824 9.01288C4.79175 9.13288 4.7745 9.26788 4.746 9.60613C4.6305 11.0086 4.3005 12.0549 3.396 13.1161C5.091 13.7821 7.0995 14.2516 8.6265 14.2516C9.53421 14.2505 10.4162 13.9503 11.1362 13.3974C11.8561 12.8445 12.3737 12.0698 12.609 11.1931C12.7938 10.5053 12.7972 9.78139 12.619 9.09187C12.4407 8.40235 12.0869 7.77075 11.592 7.25863ZM9.9675 4.66213L13.6718 1.78138C13.816 1.66935 13.9961 1.61378 14.1784 1.6251C14.3606 1.63642 14.5325 1.71386 14.6617 1.84288L16.908 4.08838C17.0372 4.21766 17.1148 4.38969 17.1261 4.57213C17.1374 4.75457 17.0817 4.93486 16.9695 5.07913L14.0895 8.78263C14.2926 9.61093 14.3048 10.4746 14.1252 11.3083C13.9456 12.142 13.5789 12.924 13.0528 13.5952C12.5267 14.2664 11.8549 14.8093 11.0883 15.1829C10.3216 15.5565 9.48008 15.7509 8.62725 15.7516C6 15.7516 2.625 14.6251 0.75 13.5001C3.735 11.2501 3.03525 9.89263 3.375 8.62513C4.1685 5.66263 7.0065 3.93238 9.96675 4.66213H9.9675ZM12.5272 6.07138C12.576 6.11863 12.6248 6.16738 12.672 6.21688L13.5233 7.06738L15.3795 4.68088L14.07 3.37138L11.6835 5.22763L12.5272 6.07138Z"/>
</svg>
