<svg width="24" height="24" viewBox="0 0 24 24" fill="none" xmlns="http://www.w3.org/2000/svg">
<path d="M20.66 6.99994C20.5306 6.76438 20.3408 6.56761 20.11 6.42994L12.77 2.18994C12.5321 2.06635 12.268 2.00183 12 2.00183C11.732 2.00183 11.4678 2.06635 11.23 2.18994L3.89 6.42994C3.6651 6.57439 3.47792 6.77042 3.344 7.00173C3.21008 7.23305 3.13329 7.49298 3.12 7.75994V16.2399C3.12725 16.5079 3.20298 16.7695 3.34 16.9999C3.46934 17.2355 3.65921 17.4323 3.89 17.5699L11.23 21.8099C11.4678 21.9335 11.732 21.9981 12 21.9981C12.268 21.9981 12.5321 21.9335 12.77 21.8099L20.11 17.5699C20.3408 17.4323 20.5306 17.2355 20.66 16.9999C20.797 16.7695 20.8727 16.5079 20.88 16.2399V7.75994C20.8727 7.49198 20.797 7.23034 20.66 6.99994ZM12 17.9199C10.9639 17.9153 9.94719 17.6388 9.05144 17.1182C8.15568 16.5975 7.41226 15.8508 6.89547 14.9528C6.37867 14.0548 6.10661 13.0369 6.10646 12.0008C6.10631 10.9648 6.37809 9.94677 6.89463 9.04862C7.41116 8.15047 8.15437 7.40361 9.04998 6.88268C9.94559 6.36175 10.9622 6.08499 11.9983 6.08007C13.0344 6.07514 14.0536 6.34221 14.9541 6.8546C15.8547 7.36699 16.6049 8.10674 17.13 8.99994L16 9.70994L15.64 9.90994L14.64 10.5199C14.3207 9.92788 13.8117 9.4603 13.1948 9.19229C12.5778 8.92428 11.8887 8.8714 11.238 9.04213C10.5874 9.21287 10.013 9.59731 9.60713 10.1337C9.20125 10.6701 8.98743 11.3274 9 11.9999C8.99716 12.5204 9.13539 13.0318 9.39999 13.4799C9.6674 13.9208 10.0439 14.2853 10.4932 14.5382C10.9425 14.7912 11.4494 14.9241 11.965 14.9241C12.4806 14.9241 12.9875 14.7912 13.4368 14.5382C13.8861 14.2853 14.2626 13.9208 14.53 13.4799L17.13 14.9999C16.6036 15.8916 15.8532 16.6301 14.9534 17.1423C14.0535 17.6545 13.0354 17.9226 12 17.9199ZM17.92 12.3299H17.26V12.9999H16.61V12.3399H16V11.6799H16.66V10.9999H17.31V11.6599H17.97L17.92 12.3299ZM20.39 12.3299H19.73V12.9999H19.07V12.3399H18.42V11.6799H19.07V10.9999H19.73V11.6599H20.39V12.3299Z" fill="#0D0D0D"/>
</svg>
