<svg width="24" height="24" viewBox="0 0 24 24" fill="none" xmlns="http://www.w3.org/2000/svg">
<path d="M8.94494 22C8.13288 22.0058 7.33908 21.7592 6.67322 21.2943C6.00736 20.8294 5.50231 20.1692 5.22785 19.4049C4.9534 18.6406 4.92309 17.81 5.14111 17.0277C5.35914 16.2454 5.81473 15.5502 6.44494 15.038C5.99217 14.6716 5.62702 14.2085 5.37618 13.6828C5.12535 13.1571 4.99517 12.582 4.99517 11.9995C4.99517 11.417 5.12535 10.8419 5.37618 10.3162C5.62702 9.79047 5.99217 9.32747 6.44494 8.96101C5.81395 8.44931 5.35762 7.75412 5.13912 6.97165C4.92062 6.18919 4.95075 5.35815 5.22535 4.59357C5.49995 3.82899 6.00542 3.16867 6.67182 2.70401C7.33822 2.23935 8.13257 1.99333 8.94494 2.00001H15.0549C15.8673 1.99333 16.6617 2.23935 17.3281 2.70401C17.9945 3.16867 18.4999 3.82899 18.7745 4.59357C19.0491 5.35815 19.0793 6.18919 18.8608 6.97165C18.6423 7.75412 18.1859 8.44931 17.5549 8.96101C18.1857 9.47289 18.6419 10.1681 18.8603 10.9506C19.0787 11.7331 19.0485 12.564 18.7739 13.3286C18.4994 14.0932 17.994 14.7535 17.3278 15.2183C16.6615 15.6831 15.8673 15.9294 15.0549 15.923C14.2859 15.9239 13.5334 15.7001 12.8899 15.279V18.079C12.8854 19.1217 12.4676 20.12 11.7281 20.8551C10.9885 21.5901 9.98764 22.0019 8.94494 22ZM8.92295 15.924C8.49863 15.9307 8.08577 16.0627 7.73621 16.3033C7.38665 16.5439 7.11599 16.8824 6.95824 17.2764C6.80048 17.6703 6.76267 18.1021 6.84954 18.5175C6.93642 18.9329 7.1441 19.3133 7.44652 19.611C7.74893 19.9087 8.13258 20.1104 8.54926 20.1908C8.96595 20.2711 9.39709 20.2266 9.78852 20.0627C10.18 19.8988 10.5142 19.6228 10.7493 19.2695C10.9844 18.9163 11.1099 18.5014 11.1099 18.077V15.924H8.92194H8.92295ZM15.0559 9.84701C14.6306 9.84918 14.2154 9.9773 13.8628 10.2152C13.5102 10.4531 13.236 10.7901 13.0747 11.1837C12.9134 11.5773 12.8724 12.0098 12.9567 12.4267C13.041 12.8437 13.2469 13.2263 13.5484 13.5263C13.85 13.8263 14.2336 14.0302 14.6509 14.1124C15.0683 14.1946 15.5006 14.1513 15.8934 13.988C16.2862 13.8248 16.6218 13.5488 16.8578 13.195C17.0939 12.8412 17.2199 12.4254 17.2199 12C17.2178 11.4276 16.9887 10.8794 16.5828 10.4757C16.1769 10.0721 15.6274 9.84595 15.0549 9.84701H15.0559ZM8.94594 9.84701C8.37493 9.84396 7.8261 10.0679 7.42018 10.4695C7.01425 10.8711 6.78449 11.4175 6.78144 11.9885C6.77839 12.5595 7.0023 13.1084 7.40391 13.5143C7.80552 13.9202 8.35193 14.15 8.92295 14.153H11.1099V9.84701H8.94594ZM12.8899 3.77001V8.07701H15.0539C15.6109 8.07961 16.1473 7.86643 16.5506 7.48219C16.9538 7.09795 17.1927 6.57249 17.2169 6.01601V6.45101V5.92301C17.2146 5.35117 16.9857 4.80357 16.5805 4.40006C16.1753 3.99655 15.6268 3.77001 15.0549 3.77001H12.8899ZM8.94394 3.77001C8.37293 3.77001 7.82531 3.99684 7.42154 4.40061C7.01778 4.80438 6.79094 5.352 6.79094 5.92301C6.79094 6.49402 7.01778 7.04165 7.42154 7.44541C7.82531 7.84918 8.37293 8.07601 8.94394 8.07601H11.1099V3.77001H8.94394Z" fill="#0D0D0D"/>
</svg>
