<svg width="24" height="24" viewBox="0 0 24 24" fill="none" xmlns="http://www.w3.org/2000/svg">
<path d="M4.36828 15.4397L6.5925 1.18641C6.66937 0.700321 7.32141 0.585478 7.55156 1.02001L9.94219 5.49423L4.36828 15.4397ZM20.25 18.75L18.0591 5.77548C18.0432 5.68274 18.0022 5.59611 17.9406 5.52499C17.879 5.45386 17.7991 5.40095 17.7096 5.37198C17.6201 5.343 17.5243 5.33908 17.4328 5.36063C17.3412 5.38218 17.2572 5.42838 17.19 5.49423L3.75 18.75L11.22 23.0583C11.4492 23.184 11.7065 23.2499 11.9679 23.2499C12.2293 23.2499 12.4866 23.184 12.7158 23.0583L20.25 18.75ZM14.1731 7.44985L12.4603 4.19017C12.4177 4.10643 12.3528 4.03611 12.2727 3.98699C12.1926 3.93787 12.1005 3.91187 12.0066 3.91187C11.9126 3.91187 11.8205 3.93787 11.7404 3.98699C11.6603 4.03611 11.5954 4.10643 11.5528 4.19017L4.02328 17.6128L14.1731 7.44985Z" fill="#0D0D0D"/>
</svg>
