<svg width="20" height="20" viewBox="0 0 20 20" fill="none" xmlns="http://www.w3.org/2000/svg">
<g clip-path="url(#clip0_18_119)">
<path d="M19.6225 9.1087L10.89 0.377447C10.7705 0.257824 10.6285 0.162931 10.4723 0.0981881C10.316 0.0334453 10.1485 0.00012207 9.97941 0.00012207C9.81028 0.00012207 9.64281 0.0334453 9.48656 0.0981881C9.33031 0.162931 9.18835 0.257824 9.06879 0.377447L7.25629 2.18995L9.55629 4.48995C9.82755 4.39733 10.1194 4.38284 10.3985 4.44813C10.6776 4.51342 10.9327 4.65586 11.1347 4.85919C11.3367 5.06252 11.4775 5.31855 11.541 5.59806C11.6045 5.87756 11.5881 6.16929 11.4938 6.43995L13.71 8.65745C14.0379 8.542 14.3954 8.54165 14.7235 8.65646C15.0516 8.77126 15.3308 8.99438 15.5152 9.28907C15.6996 9.58377 15.7781 9.93246 15.7379 10.2777C15.6976 10.623 15.541 10.9443 15.2938 11.1887C15.0435 11.4405 14.7136 11.5976 14.3604 11.6332C14.0071 11.6687 13.6525 11.5806 13.3571 11.3837C13.0616 11.1868 12.8437 10.8935 12.7405 10.5538C12.6373 10.2141 12.6553 9.84913 12.7913 9.5212L10.725 7.4537V12.8949C11.0391 13.0504 11.2904 13.3088 11.4371 13.6271C11.5837 13.9454 11.6168 14.3043 11.5309 14.6441C11.445 14.9838 11.2453 15.2839 10.9649 15.4942C10.6846 15.7045 10.3407 15.8124 9.99049 15.7999C9.64027 15.7874 9.30491 15.6552 9.04032 15.4255C8.77573 15.1957 8.59789 14.8821 8.53643 14.5371C8.47498 14.1921 8.53363 13.8365 8.7026 13.5295C8.87158 13.2224 9.14068 12.9826 9.46504 12.8499V7.3587C9.2779 7.28202 9.10779 7.16905 8.96451 7.02632C8.82124 6.88358 8.70763 6.7139 8.63024 6.52705C8.55286 6.3402 8.51322 6.13988 8.51361 5.93764C8.514 5.7354 8.55442 5.53524 8.63254 5.3487L6.36629 3.0812L0.37879 9.0687C0.259167 9.18826 0.164274 9.33022 0.0995309 9.48647C0.0347881 9.64272 0.00146484 9.81019 0.00146484 9.97932C0.00146484 10.1485 0.0347881 10.3159 0.0995309 10.4722C0.164274 10.6284 0.259167 10.7704 0.37879 10.8899L9.11129 19.6224C9.23085 19.7421 9.37282 19.837 9.52906 19.9017C9.68531 19.9665 9.85279 19.9998 10.0219 19.9998C10.191 19.9998 10.3585 19.9665 10.5148 19.9017C10.671 19.837 10.813 19.7421 10.9325 19.6224L19.6238 10.9312C19.8651 10.6896 20.0006 10.362 20.0006 10.0206C20.0006 9.6791 19.8651 9.35158 19.6238 9.10995" fill="#0D0D0D"/>
</g>
<defs>
<clipPath id="clip0_18_119">
<rect width="20" height="20" fill="white"/>
</clipPath>
</defs>
</svg>
