<svg width="15" height="15" viewBox="0 0 15 15" fill="none" xmlns="http://www.w3.org/2000/svg">
<path d="M3.67689 11.658C3.48939 11.533 3.32814 11.3736 3.13939 11.148C3.04142 11.0281 2.94433 10.9075 2.84814 10.7861C2.55877 10.4267 2.37627 10.2611 2.18752 10.193C2.03145 10.137 1.90404 10.0212 1.8333 9.87126C1.76257 9.72129 1.7543 9.54936 1.81033 9.3933C1.86636 9.23724 1.98209 9.10982 2.13206 9.03908C2.28203 8.96835 2.45395 8.96008 2.61002 9.01611C3.08002 9.18486 3.39814 9.47549 3.82689 10.0086C3.76814 9.93549 4.03939 10.2755 4.09752 10.3455C4.21627 10.4874 4.30377 10.5736 4.37252 10.6192C4.50002 10.7049 4.73939 10.7417 5.09127 10.7067C5.10564 10.468 5.15002 10.2361 5.21752 10.0224C3.36252 9.56861 2.31252 8.37236 2.31252 6.02486C2.31252 5.24986 2.54377 4.55236 2.97377 3.96736C2.83752 3.40861 2.85814 2.73299 3.16252 1.97236C3.19706 1.88632 3.25031 1.80904 3.31842 1.74613C3.38652 1.68322 3.46777 1.63624 3.55627 1.60861C3.60689 1.59361 3.63564 1.58674 3.68627 1.57924C4.18814 1.50236 4.89689 1.68549 5.82064 2.26424C6.37114 2.13554 6.93468 2.07094 7.50002 2.07174C8.07002 2.07174 8.63627 2.13674 9.17752 2.26424C10.1006 1.68111 10.8106 1.49799 11.3163 1.57924C11.3694 1.58736 11.4144 1.59799 11.4525 1.61049C11.5393 1.6391 11.6187 1.68638 11.6852 1.74901C11.7518 1.81164 11.8037 1.8881 11.8375 1.97299C12.1419 2.73299 12.1625 3.40861 12.0263 3.96674C12.4581 4.55174 12.6875 5.24486 12.6875 6.02486C12.6875 8.37299 11.6413 9.56549 9.78627 10.0199C9.86439 10.2792 9.90502 10.5692 9.90502 10.8824C9.90508 11.4482 9.90258 12.014 9.89752 12.5799C10.0379 12.6105 10.1634 12.6885 10.253 12.8008C10.3425 12.9132 10.3907 13.0529 10.3893 13.1966C10.3879 13.3402 10.337 13.479 10.2453 13.5896C10.1536 13.7001 10.0266 13.7757 9.88564 13.8036C9.17377 13.9461 8.64627 13.4711 8.64627 12.8505L8.64752 12.5717L8.65064 12.1311C8.65377 11.6886 8.65502 11.2949 8.65502 10.8824C8.65502 10.4467 8.54064 10.1624 8.38939 10.0324C7.97627 9.67611 8.18564 8.99799 8.72689 8.93736C10.5813 8.72924 11.4375 8.01111 11.4375 6.02486C11.4375 5.42799 11.2425 4.93486 10.8669 4.52236C10.7878 4.43564 10.7346 4.32838 10.7136 4.21287C10.6926 4.09736 10.7046 3.97827 10.7481 3.86924C10.8519 3.61049 10.8963 3.27111 10.8081 2.86049L10.8019 2.86236C10.495 2.94924 10.1081 3.13736 9.64064 3.45549C9.56526 3.50665 9.4796 3.54071 9.38967 3.55528C9.29973 3.56986 9.2077 3.56459 9.12002 3.53986C8.59246 3.39379 8.04743 3.32041 7.50002 3.32174C6.94377 3.32174 6.39252 3.39611 5.88002 3.54049C5.79265 3.56502 5.701 3.57024 5.61141 3.55578C5.52183 3.54131 5.43647 3.50752 5.36127 3.45674C4.89127 3.13986 4.50252 2.95236 4.19377 2.86486C4.10377 3.27299 4.14814 3.61111 4.25127 3.86924C4.2949 3.97821 4.30696 4.09727 4.28607 4.21278C4.26518 4.32828 4.21218 4.43557 4.13314 4.52236C3.76002 4.93111 3.56252 5.43361 3.56252 6.02486C3.56252 8.00736 4.41939 8.72986 6.26377 8.93736C6.80439 8.99799 7.01439 9.67299 6.60377 10.0299C6.48377 10.1349 6.33564 10.4874 6.33564 10.8824V12.8511C6.33564 13.4674 5.81377 13.9292 5.11064 13.8061C4.968 13.7811 4.83848 13.7073 4.74422 13.5973C4.64996 13.4873 4.59681 13.3481 4.59386 13.2033C4.5909 13.0585 4.63833 12.9171 4.72803 12.8034C4.81773 12.6897 4.94414 12.6107 5.08564 12.5799V11.9611C4.51689 11.9992 4.04689 11.9061 3.67689 11.658Z" fill="#0D0D0D"/>
</svg>
