<svg width="24" height="24" viewBox="0 0 24 24" fill="none" xmlns="http://www.w3.org/2000/svg">
<circle cx="12" cy="12" r="12" fill="#D4D5D7"/>
<g clip-path="url(#clip0_203_854)">
<path d="M8.32982 15.9918C8.14982 15.8718 7.99502 15.7188 7.81382 15.5022C7.71977 15.3871 7.62657 15.2713 7.53422 15.1548C7.25642 14.8098 7.08122 14.6508 6.90002 14.5854C6.7502 14.5316 6.62789 14.4205 6.55998 14.2765C6.49207 14.1325 6.48414 13.9675 6.53792 13.8177C6.59171 13.6679 6.70281 13.5455 6.84678 13.4776C6.99075 13.4097 7.1558 13.4018 7.30562 13.4556C7.75682 13.6176 8.06222 13.8966 8.47382 14.4084C8.41742 14.3382 8.67782 14.6646 8.73362 14.7318C8.84762 14.868 8.93162 14.9508 8.99762 14.9946C9.12002 15.0768 9.34982 15.1122 9.68762 15.0786C9.70142 14.8494 9.74402 14.6268 9.80882 14.4216C8.02802 13.986 7.02002 12.8376 7.02002 10.584C7.02002 9.83998 7.24202 9.17038 7.65482 8.60878C7.52402 8.07238 7.54382 7.42378 7.83602 6.69358C7.86919 6.61098 7.92031 6.53679 7.98569 6.47639C8.05106 6.416 8.12906 6.3709 8.21402 6.34438C8.26262 6.32998 8.29022 6.32338 8.33882 6.31618C8.82062 6.24238 9.50102 6.41818 10.3878 6.97378C10.9163 6.85023 11.4573 6.78821 12 6.78898C12.5472 6.78898 13.0908 6.85138 13.6104 6.97378C14.4966 6.41398 15.1782 6.23818 15.6636 6.31618C15.7146 6.32398 15.7578 6.33418 15.7944 6.34618C15.8777 6.37364 15.954 6.41904 16.0178 6.47916C16.0817 6.53929 16.1316 6.61268 16.164 6.69418C16.4562 7.42378 16.476 8.07238 16.3452 8.60818C16.7598 9.16978 16.98 9.83518 16.98 10.584C16.98 12.8382 15.9756 13.983 14.1948 14.4192C14.2698 14.6682 14.3088 14.9466 14.3088 15.2472C14.3089 15.7904 14.3065 16.3336 14.3016 16.8768C14.4364 16.9062 14.5569 16.9811 14.6429 17.0889C14.7288 17.1967 14.7751 17.3309 14.7737 17.4688C14.7724 17.6067 14.7236 17.74 14.6355 17.8461C14.5475 17.9522 14.4255 18.0248 14.2902 18.0516C13.6068 18.1884 13.1004 17.7324 13.1004 17.1366L13.1016 16.869L13.1046 16.446C13.1076 16.0212 13.1088 15.6432 13.1088 15.2472C13.1088 14.829 12.999 14.556 12.8538 14.4312C12.4572 14.0892 12.6582 13.4382 13.1778 13.38C14.958 13.1802 15.78 12.4908 15.78 10.584C15.78 10.011 15.5928 9.53758 15.2322 9.14158C15.1562 9.05832 15.1053 8.95535 15.0851 8.84446C15.0649 8.73357 15.0764 8.61925 15.1182 8.51458C15.2178 8.26618 15.2604 7.94038 15.1758 7.54618L15.1698 7.54798C14.8752 7.63138 14.5038 7.81198 14.055 8.11738C13.9827 8.16649 13.9004 8.19919 13.8141 8.21318C13.7278 8.22717 13.6394 8.22212 13.5552 8.19838C13.0488 8.05815 12.5255 7.9877 12 7.98898C11.466 7.98898 10.9368 8.06038 10.4448 8.19898C10.361 8.22253 10.273 8.22754 10.187 8.21366C10.101 8.19977 10.019 8.16733 9.94682 8.11858C9.49562 7.81438 9.12242 7.63438 8.82602 7.55038C8.73962 7.94218 8.78222 8.26678 8.88122 8.51458C8.92311 8.61919 8.93469 8.73349 8.91463 8.84437C8.89458 8.95526 8.8437 9.05826 8.76782 9.14158C8.40962 9.53398 8.22002 10.0164 8.22002 10.584C8.22002 12.4872 9.04262 13.1808 10.8132 13.38C11.3322 13.4382 11.5338 14.0862 11.1396 14.4288C11.0244 14.5296 10.8822 14.868 10.8822 15.2472V17.1372C10.8822 17.7288 10.3812 18.1722 9.70622 18.054C9.56928 18.0299 9.44494 17.9591 9.35445 17.8535C9.26397 17.748 9.21294 17.6143 9.21011 17.4752C9.20728 17.3362 9.2528 17.2006 9.33892 17.0914C9.42503 16.9822 9.54638 16.9064 9.68222 16.8768V16.2828C9.13622 16.3194 8.68502 16.23 8.32982 15.9918Z" fill="#121212"/>
</g>
<defs>
<clipPath id="clip0_203_854">
<rect width="14.4" height="14.4" fill="white" transform="translate(4.80005 4.80005)"/>
</clipPath>
</defs>
</svg>
