<svg width="15" height="15" viewBox="0 0 15 15" fill="none" xmlns="http://www.w3.org/2000/svg">
<path d="M7.5 5.625C7.00272 5.625 6.52581 5.82254 6.17417 6.17417C5.82254 6.52581 5.625 7.00272 5.625 7.5C5.625 7.99728 5.82254 8.47419 6.17417 8.82583C6.52581 9.17746 7.00272 9.375 7.5 9.375C7.99728 9.375 8.47419 9.17746 8.82583 8.82583C9.17746 8.47419 9.375 7.99728 9.375 7.5C9.375 7.00272 9.17746 6.52581 8.82583 6.17417C8.47419 5.82254 7.99728 5.625 7.5 5.625ZM7.5 4.375C8.3288 4.375 9.12366 4.70424 9.70971 5.29029C10.2958 5.87634 10.625 6.6712 10.625 7.5C10.625 8.3288 10.2958 9.12366 9.70971 9.70971C9.12366 10.2958 8.3288 10.625 7.5 10.625C6.6712 10.625 5.87634 10.2958 5.29029 9.70971C4.70424 9.12366 4.375 8.3288 4.375 7.5C4.375 6.6712 4.70424 5.87634 5.29029 5.29029C5.87634 4.70424 6.6712 4.375 7.5 4.375V4.375ZM11.5625 4.21875C11.5625 4.42595 11.4802 4.62466 11.3337 4.77118C11.1872 4.91769 10.9885 5 10.7812 5C10.574 5 10.3753 4.91769 10.2288 4.77118C10.0823 4.62466 10 4.42595 10 4.21875C10 4.01155 10.0823 3.81284 10.2288 3.66632C10.3753 3.51981 10.574 3.4375 10.7812 3.4375C10.9885 3.4375 11.1872 3.51981 11.3337 3.66632C11.4802 3.81284 11.5625 4.01155 11.5625 4.21875V4.21875ZM7.5 2.5C5.95375 2.5 5.70125 2.50438 4.98188 2.53625C4.49188 2.55938 4.16312 2.625 3.85812 2.74375C3.58687 2.84875 3.39125 2.97437 3.18312 3.18312C2.9875 3.37212 2.8371 3.60286 2.74312 3.85812C2.62437 4.16437 2.55875 4.4925 2.53625 4.98188C2.50375 5.67188 2.5 5.91312 2.5 7.5C2.5 9.04625 2.50438 9.29875 2.53625 10.0181C2.55938 10.5075 2.625 10.8369 2.74312 11.1413C2.84937 11.4131 2.97438 11.6088 3.18188 11.8163C3.3925 12.0263 3.58812 12.1519 3.85688 12.2556C4.16562 12.375 4.49438 12.4412 4.98188 12.4637C5.67188 12.4962 5.91312 12.5 7.5 12.5C9.04625 12.5 9.29875 12.4956 10.0181 12.4637C10.5069 12.4406 10.8363 12.375 11.1413 12.2569C11.4119 12.1513 11.6088 12.0256 11.8163 11.8181C12.0269 11.6075 12.1525 11.4119 12.2563 11.1431C12.375 10.835 12.4412 10.5056 12.4637 10.0181C12.4962 9.32812 12.5 9.08688 12.5 7.5C12.5 5.95375 12.4956 5.70125 12.4637 4.98188C12.4406 4.49313 12.375 4.16312 12.2563 3.85812C12.1621 3.60313 12.0119 3.37248 11.8169 3.18312C11.628 2.9874 11.3972 2.83698 11.1419 2.74312C10.8356 2.62437 10.5069 2.55875 10.0181 2.53625C9.32812 2.50375 9.08688 2.5 7.5 2.5ZM7.5 1.25C9.19813 1.25 9.41 1.25625 10.0762 1.2875C10.7419 1.31875 11.195 1.42313 11.5937 1.57813C12.0062 1.73688 12.3538 1.95187 12.7013 2.29875C13.0191 2.61118 13.265 2.98912 13.4219 3.40625C13.5763 3.80437 13.6813 4.25812 13.7125 4.92375C13.7419 5.59 13.75 5.80187 13.75 7.5C13.75 9.19813 13.7438 9.41 13.7125 10.0762C13.6813 10.7419 13.5763 11.195 13.4219 11.5937C13.2654 12.0111 13.0195 12.3891 12.7013 12.7013C12.3887 13.0189 12.0108 13.2648 11.5937 13.4219C11.1956 13.5763 10.7419 13.6813 10.0762 13.7125C9.41 13.7419 9.19813 13.75 7.5 13.75C5.80187 13.75 5.59 13.7438 4.92375 13.7125C4.25812 13.6813 3.805 13.5763 3.40625 13.4219C2.98895 13.2653 2.61095 13.0193 2.29875 12.7013C1.98088 12.3889 1.73496 12.0109 1.57813 11.5937C1.42313 11.1956 1.31875 10.7419 1.2875 10.0762C1.25812 9.41 1.25 9.19813 1.25 7.5C1.25 5.80187 1.25625 5.59 1.2875 4.92375C1.31875 4.2575 1.42313 3.805 1.57813 3.40625C1.73452 2.98886 1.9805 2.61083 2.29875 2.29875C2.61104 1.98077 2.98902 1.73483 3.40625 1.57813C3.805 1.42313 4.2575 1.31875 4.92375 1.2875C5.59 1.25812 5.80187 1.25 7.5 1.25Z" fill="#0D0D0D"/>
</svg>
