<svg width="13" height="13" viewBox="0 0 13 13" fill="none" xmlns="http://www.w3.org/2000/svg">
<path d="M3.86458 2.85417C3.86445 3.13044 3.75457 3.39533 3.55912 3.59059C3.36367 3.78584 3.09866 3.89545 2.8224 3.89531C2.54613 3.89518 2.28123 3.7853 2.08598 3.58985C1.89073 3.3944 1.78111 3.12939 1.78125 2.85313C1.78139 2.57686 1.89127 2.31196 2.08672 2.11671C2.28216 1.92146 2.54717 1.81184 2.82344 1.81198C3.0997 1.81212 3.3646 1.922 3.55985 2.11745C3.75511 2.31289 3.86472 2.5779 3.86458 2.85417ZM3.89583 4.66667H1.8125V11.1875H3.89583V4.66667ZM7.1875 4.66667H5.11458V11.1875H7.16667V7.76563C7.16667 5.85938 9.65104 5.68229 9.65104 7.76563V11.1875H11.7083V7.05729C11.7083 3.84375 8.03125 3.96354 7.16667 5.54167L7.1875 4.66667Z" fill="#0D0D0D"/>
</svg>
