<svg width="24" height="24" viewBox="0 0 24 24" fill="none" xmlns="http://www.w3.org/2000/svg">
<circle cx="12" cy="12" r="12" fill="#D4D5D7"/>
<path d="M9.47 8.50001C9.46987 8.76523 9.36438 9.01953 9.17675 9.20697C8.98912 9.39441 8.73472 9.49964 8.4695 9.49951C8.20428 9.49938 7.94998 9.3939 7.76254 9.20626C7.5751 9.01863 7.46987 8.76423 7.47 8.49901C7.47013 8.2338 7.57562 7.97949 7.76325 7.79205C7.95088 7.60461 8.20528 7.49938 8.4705 7.49951C8.73572 7.49964 8.99002 7.60513 9.17746 7.79276C9.3649 7.98039 9.47013 8.2348 9.47 8.50001ZM9.5 10.24H7.5V16.5H9.5V10.24ZM12.66 10.24H10.67V16.5H12.64V13.215C12.64 11.385 15.025 11.215 15.025 13.215V16.5H17V12.535C17 9.45001 13.47 9.56501 12.64 11.08L12.66 10.24Z" fill="#121212"/>
</svg>
