<svg width="49" height="49" viewBox="0 0 49 49" fill="none" xmlns="http://www.w3.org/2000/svg">
<path d="M34.1911 18.4667V19.8219C32.5484 18.7541 30.5772 18.1381 28.4828 18.1381C22.6103 18.1381 17.8876 22.9019 17.8876 28.7333C17.8876 34.5648 22.6103 39.3285 28.4828 39.3285C30.5772 39.3285 32.5484 38.7125 34.1911 37.6448V39H39.4476V18.4667H34.1911ZM28.6471 34.4005C25.5671 34.4005 23.3084 32.0187 23.3084 28.7333C23.3084 25.448 25.5671 23.0661 28.6471 23.0661C31.7271 23.0661 33.9858 25.448 33.9858 28.7333C33.9858 32.0187 31.7271 34.4005 28.6471 34.4005Z" fill="#EDE0E1"/>
<path d="M34.1911 18.4667V17.4667H33.1911V18.4667H34.1911ZM34.1911 19.8219L33.6461 20.6603L35.1911 21.6646V19.8219H34.1911ZM34.1911 37.6448H35.1911V35.8021L33.6461 36.8064L34.1911 37.6448ZM34.1911 39H33.1911V40H34.1911V39ZM39.4476 39V40H40.4476V39H39.4476ZM39.4476 18.4667H40.4476V17.4667H39.4476V18.4667ZM33.1911 18.4667V19.8219H35.1911V18.4667H33.1911ZM34.7361 18.9834C32.9345 17.8124 30.7745 17.1381 28.4828 17.1381V19.1381C30.3799 19.1381 32.1624 19.6959 33.6461 20.6603L34.7361 18.9834ZM28.4828 17.1381C22.0555 17.1381 16.8876 22.3521 16.8876 28.7333H18.8876C18.8876 23.4516 23.1651 19.1381 28.4828 19.1381V17.1381ZM16.8876 28.7333C16.8876 35.1146 22.0555 40.3285 28.4828 40.3285V38.3285C23.1651 38.3285 18.8876 34.015 18.8876 28.7333H16.8876ZM28.4828 40.3285C30.7745 40.3285 32.9345 39.6543 34.7361 38.4832L33.6461 36.8064C32.1624 37.7708 30.3799 38.3285 28.4828 38.3285V40.3285ZM33.1911 37.6448V39H35.1911V37.6448H33.1911ZM34.1911 40H39.4476V38H34.1911V40ZM40.4476 39V18.4667H38.4476V39H40.4476ZM39.4476 17.4667H34.1911V19.4667H39.4476V17.4667ZM28.6471 33.4005C26.173 33.4005 24.3084 31.5216 24.3084 28.7333H22.3084C22.3084 32.5157 24.9612 35.4005 28.6471 35.4005V33.4005ZM24.3084 28.7333C24.3084 25.9451 26.173 24.0661 28.6471 24.0661V22.0661C24.9612 22.0661 22.3084 24.9509 22.3084 28.7333H24.3084ZM28.6471 24.0661C31.1212 24.0661 32.9858 25.9451 32.9858 28.7333H34.9858C34.9858 24.9509 32.333 22.0661 28.6471 22.0661V24.0661ZM32.9858 28.7333C32.9858 31.5216 31.1212 33.4005 28.6471 33.4005V35.4005C32.333 35.4005 34.9858 32.5157 34.9858 28.7333H32.9858Z" fill="#0D0D0D"/>
<path d="M12.5042 39.3285C18.3767 39.3285 23.0994 34.5648 23.0994 28.7333C23.0994 22.9019 18.3767 18.1381 12.5042 18.1381C6.67271 18.1381 1.90897 22.9019 1.90897 28.7333C1.90897 34.5648 6.67271 39.3285 12.5042 39.3285ZM12.7095 34.4005C9.58844 34.4005 7.37084 32.0187 7.37084 28.7333C7.37084 25.448 9.58844 23.0661 12.7095 23.0661C15.7895 23.0661 18.0482 25.448 18.0482 28.7333C18.0482 32.0187 15.7895 34.4005 12.7095 34.4005Z" fill="#EDE0E1"/>
<path d="M12.5042 40.3285C18.9315 40.3285 24.0994 35.1146 24.0994 28.7333H22.0994C22.0994 34.015 17.8219 38.3285 12.5042 38.3285V40.3285ZM24.0994 28.7333C24.0994 22.3521 18.9315 17.1381 12.5042 17.1381V19.1381C17.8219 19.1381 22.0994 23.4516 22.0994 28.7333H24.0994ZM12.5042 17.1381C6.12042 17.1381 0.908972 22.3496 0.908972 28.7333H2.90897C2.90897 23.4542 7.22499 19.1381 12.5042 19.1381V17.1381ZM0.908972 28.7333C0.908972 35.1171 6.12042 40.3285 12.5042 40.3285V38.3285C7.22499 38.3285 2.90897 34.0125 2.90897 28.7333H0.908972ZM12.7095 33.4005C10.1993 33.4005 8.37084 31.5268 8.37084 28.7333H6.37084C6.37084 32.5105 8.97758 35.4005 12.7095 35.4005V33.4005ZM8.37084 28.7333C8.37084 25.9398 10.1993 24.0661 12.7095 24.0661V22.0661C8.97758 22.0661 6.37084 24.9562 6.37084 28.7333H8.37084ZM12.7095 24.0661C15.1836 24.0661 17.0482 25.9451 17.0482 28.7333H19.0482C19.0482 24.9509 16.3954 22.0661 12.7095 22.0661V24.0661ZM17.0482 28.7333C17.0482 31.5216 15.1836 33.4005 12.7095 33.4005V35.4005C16.3954 35.4005 19.0482 32.5157 19.0482 28.7333H17.0482Z" fill="#0D0D0D"/>
<circle cx="45" cy="36" r="3.5" fill="#7F5AF0" stroke="#0D0D0D"/>
</svg>
