<svg width="18" height="18" viewBox="0 0 18 18" fill="#0D0D0D" xmlns="http://www.w3.org/2000/svg">
<path d="M9 1.5C10.7902 1.5 12.5071 2.21116 13.773 3.47703C15.0388 4.7429 15.75 6.45979 15.75 8.25V13.875C15.7503 14.436 15.5708 14.9822 15.238 15.4338C14.9052 15.8853 14.4364 16.2184 13.9005 16.3841C13.3646 16.5498 12.7897 16.5395 12.26 16.3547C11.7304 16.1698 11.2739 15.8202 10.9575 15.357C10.7616 15.704 10.477 15.9927 10.1328 16.1936C9.7887 16.3945 9.39737 16.5004 8.99887 16.5004C8.60038 16.5004 8.20905 16.3945 7.8649 16.1936C7.52076 15.9927 7.23617 15.704 7.04025 15.357C6.73051 15.8091 6.28703 16.153 5.77199 16.3403C5.25695 16.5277 4.69619 16.5491 4.16835 16.4016C3.64051 16.2542 3.17206 15.9452 2.8287 15.518C2.48534 15.0909 2.28429 14.567 2.25375 14.0198L2.25 13.8743V8.25C2.25 6.45979 2.96116 4.7429 4.22703 3.47703C5.4929 2.21116 7.20979 1.5 9 1.5ZM9 3C7.63877 2.99998 6.33074 3.52867 5.35183 4.47456C4.37292 5.42044 3.79967 6.70957 3.753 8.07L3.75 8.25V13.8345L3.7515 13.938C3.76442 14.1628 3.84453 14.3786 3.98145 14.5574C4.11837 14.7362 4.30581 14.8698 4.5195 14.9409C4.73319 15.012 4.96329 15.0173 5.18004 14.9562C5.39679 14.8951 5.59021 14.7703 5.73525 14.598L5.80125 14.511C5.94486 14.3004 6.13977 14.1299 6.36757 14.0156C6.59536 13.9012 6.84854 13.8468 7.1032 13.8575C7.35787 13.8681 7.60561 13.9435 7.82306 14.0765C8.04051 14.2095 8.22048 14.3957 8.346 14.6175C8.41106 14.7332 8.50569 14.8296 8.62023 14.8967C8.73476 14.9639 8.86508 14.9994 8.99784 14.9996C9.13061 14.9998 9.26105 14.9648 9.37581 14.898C9.49058 14.8313 9.58555 14.7353 9.651 14.6198C9.77106 14.4066 9.94142 14.2261 10.1472 14.0939C10.3531 13.9617 10.5881 13.8818 10.8318 13.8613C11.0756 13.8407 11.3206 13.8801 11.5457 13.976C11.7707 14.0718 11.9689 14.2212 12.123 14.4113L12.1957 14.5087C12.3259 14.7 12.5119 14.8464 12.7283 14.9281C12.9447 15.0098 13.1811 15.0228 13.4051 14.9653C13.6292 14.9078 13.8301 14.7827 13.9805 14.6069C14.1309 14.4311 14.2234 14.2133 14.2455 13.983L14.25 13.875V8.25C14.25 6.85761 13.6969 5.52226 12.7123 4.53769C11.7277 3.55312 10.3924 3 9 3ZM9 9C9.82875 9 10.5 9.84 10.5 10.875C10.5 11.91 9.82875 12.75 9 12.75C8.17125 12.75 7.5 11.91 7.5 10.875C7.5 9.84 8.17125 9 9 9ZM7.125 6C7.42337 6 7.70952 6.11853 7.9205 6.3295C8.13147 6.54048 8.25 6.82663 8.25 7.125C8.25 7.42337 8.13147 7.70952 7.9205 7.9205C7.70952 8.13147 7.42337 8.25 7.125 8.25C6.82663 8.25 6.54048 8.13147 6.3295 7.9205C6.11853 7.70952 6 7.42337 6 7.125C6 6.82663 6.11853 6.54048 6.3295 6.3295C6.54048 6.11853 6.82663 6 7.125 6ZM10.875 6C11.1734 6 11.4595 6.11853 11.6705 6.3295C11.8815 6.54048 12 6.82663 12 7.125C12 7.42337 11.8815 7.70952 11.6705 7.9205C11.4595 8.13147 11.1734 8.25 10.875 8.25C10.5766 8.25 10.2905 8.13147 10.0795 7.9205C9.86853 7.70952 9.75 7.42337 9.75 7.125C9.75 6.82663 9.86853 6.54048 10.0795 6.3295C10.2905 6.11853 10.5766 6 10.875 6Z" fill="#0D0D0D" />
</svg>
