<svg width="24" height="24" viewBox="0 0 12 26" fill="none" xmlns="http://www.w3.org/2000/svg">
<path d="M8.22003 2.8607C7.1376 1.5721 6.19692 0.283493 6.01652 0H5.97786C5.79745 0.270607 4.85677 1.5721 3.77434 2.8607C-5.50361 14.703 5.24335 22.6923 5.24335 22.6923L5.33356 22.7568C5.41087 23.9809 5.61705 25.7592 5.61705 25.7592H6.41598C6.41598 25.7592 6.60928 23.9938 6.68659 22.7568L6.77679 22.6794C6.77679 22.6794 17.498 14.703 8.22003 2.8607ZM5.97786 22.5119C5.75202 22.3264 5.54486 22.1192 5.35933 21.8934L5.97786 9.00735L6.55773 21.8934C6.38389 22.117 6.18978 22.324 5.97786 22.5119Z" fill="#0D0D0D"/>
</svg>
