<svg width="20" height="20" viewBox="0 0 20 20" fill="none" xmlns="http://www.w3.org/2000/svg">
<path d="M20 9.74087C20 8.41587 18.3408 7.16004 15.7967 6.38171C16.3842 3.78921 16.1233 1.72587 14.9733 1.06504C14.6947 0.908974 14.3793 0.830417 14.06 0.837541V1.74587C14.2475 1.74587 14.3983 1.78337 14.525 1.85254C15.0792 2.17087 15.32 3.38087 15.1325 4.93837C15.0875 5.32171 15.0142 5.72504 14.9242 6.13671C14.0722 5.93141 13.2075 5.78302 12.3358 5.69254C11.8165 4.97612 11.25 4.29516 10.64 3.65421C11.9692 2.41921 13.2167 1.74254 14.065 1.74254V0.833374C12.9433 0.833374 11.4758 1.63254 9.99167 3.01837C8.50833 1.64171 7.04 0.850041 5.91917 0.850041V1.75837C6.76333 1.75837 8.015 2.43171 9.34417 3.65837C8.77333 4.25837 8.2025 4.93837 7.66 5.69254C6.78653 5.78202 5.92029 5.93182 5.0675 6.14087C4.97737 5.7507 4.90645 5.35634 4.855 4.95921C4.66333 3.40087 4.9 2.19087 5.45083 1.86921C5.5725 1.79587 5.73167 1.76254 5.91917 1.76254V0.854207C5.5775 0.854207 5.26667 0.927541 4.99833 1.08171C3.8525 1.74254 3.59583 3.80087 4.18667 6.38587C1.65083 7.16921 0 8.42004 0 9.74087C0 11.0659 1.65917 12.3217 4.20333 13.0992C3.61583 15.6925 3.87667 17.7559 5.02667 18.4159C5.29167 18.5709 5.60167 18.6442 5.94333 18.6442C7.065 18.6442 8.5325 17.845 10.0167 16.4592C11.5 17.8367 12.9675 18.6275 14.0892 18.6275C14.4109 18.6343 14.7287 18.5555 15.01 18.3992C16.1558 17.7392 16.4125 15.6809 15.8217 13.0959C18.3492 12.3175 20 11.0617 20 9.74087ZM14.6917 7.02171C14.5333 7.56659 14.3498 8.10383 14.1417 8.63171C13.801 7.96901 13.4269 7.32401 13.0208 6.69921C13.6 6.78504 14.1583 6.89087 14.6925 7.02171H14.6917ZM12.825 11.3634C12.5198 11.8963 12.192 12.4159 11.8425 12.9209C10.6194 13.0287 9.3892 13.0301 8.16583 12.925C7.46412 11.9227 6.85045 10.8615 6.33167 9.75338C6.84965 8.64263 7.46072 7.57771 8.15833 6.57004C9.38116 6.46202 10.6111 6.46034 11.8342 6.56504C12.1725 7.05004 12.5033 7.56837 12.8208 8.11504C13.1308 8.64837 13.4125 9.19004 13.6692 9.73671C13.4097 10.29 13.128 10.8327 12.825 11.3634ZM14.1417 10.8334C14.3617 11.3792 14.55 11.9259 14.7042 12.4559C14.1708 12.5867 13.6075 12.6967 13.025 12.7817C13.4294 12.1512 13.8021 11.501 14.1417 10.8334ZM10.0083 15.1834C9.62917 14.7917 9.25 14.3559 8.875 13.8784C9.24167 13.895 9.61667 13.9075 9.99583 13.9075C10.3792 13.9075 10.7583 13.8992 11.1292 13.8784C10.7625 14.3559 10.3833 14.7917 10.0083 15.1834ZM6.975 12.7817C6.41312 12.7003 5.8553 12.593 5.30333 12.46C5.45417 11.9342 5.64167 11.3917 5.85333 10.85C6.02083 11.175 6.19667 11.5017 6.38833 11.8284C6.58 12.1542 6.775 12.4725 6.975 12.7817ZM9.9875 4.29837C10.3667 4.69004 10.7458 5.12587 11.1208 5.60337C10.7542 5.58671 10.3792 5.57421 10 5.57421C9.61667 5.57421 9.2375 5.58254 8.86667 5.60337C9.23333 5.12587 9.6125 4.69004 9.9875 4.29837ZM6.97083 6.70004C6.56656 7.32915 6.19387 7.97801 5.85417 8.64421C5.64018 8.11292 5.45245 7.57144 5.29167 7.02171C5.825 6.89504 6.38833 6.78504 6.97083 6.70004ZM3.28167 11.8034C1.83833 11.1884 0.905 10.3809 0.905 9.74087C0.905 9.10087 1.83833 8.28921 3.28167 7.67837C3.63167 7.52754 4.015 7.39254 4.41083 7.26671C4.64333 8.06504 4.94917 8.89671 5.3275 9.74921C4.9703 10.551 4.66821 11.3763 4.42333 12.2192C4.03621 12.0993 3.6552 11.9606 3.28167 11.8034ZM5.475 17.6284C4.92083 17.3117 4.68 16.1 4.8675 14.5434C4.9125 14.16 4.98583 13.7559 5.07583 13.3442C5.87417 13.54 6.74667 13.6909 7.66417 13.7892C8.18348 14.5056 8.75002 15.1866 9.36 15.8275C8.03083 17.0625 6.78333 17.7392 5.935 17.7392C5.77495 17.741 5.61694 17.7032 5.475 17.6292V17.6284ZM15.145 14.5225C15.3367 16.08 15.1 17.2909 14.5492 17.6125C14.4275 17.6859 14.2683 17.7184 14.0808 17.7184C13.2367 17.7184 11.985 17.0459 10.6558 15.8184C11.2633 15.1801 11.826 14.5007 12.34 13.785C13.2135 13.6956 14.0797 13.5458 14.9325 13.3367C15.0267 13.7484 15.0992 14.1434 15.145 14.5225ZM16.7142 11.8034C16.3642 11.9542 15.9808 12.0892 15.585 12.215C15.3358 11.3678 15.0296 10.5384 14.6683 9.73254C15.0433 8.88504 15.3442 8.05754 15.5725 7.26254C15.9609 7.3828 16.3432 7.52157 16.7183 7.67837C18.1617 8.29337 19.095 9.10087 19.095 9.74087C19.0908 10.3809 18.1575 11.1925 16.7142 11.8034Z" fill="#0D0D0D"/>
<path d="M9.99578 11.6042C10.49 11.6042 10.9639 11.4079 11.3134 11.0585C11.6628 10.709 11.8591 10.2351 11.8591 9.7409C11.8591 9.24671 11.6628 8.77276 11.3134 8.42332C10.9639 8.07388 10.49 7.87756 9.99578 7.87756C9.50159 7.87756 9.02765 8.07388 8.6782 8.42332C8.32876 8.77276 8.13245 9.24671 8.13245 9.7409C8.13245 10.2351 8.32876 10.709 8.6782 11.0585C9.02765 11.4079 9.50159 11.6042 9.99578 11.6042Z" fill="#0D0D0D"/>
</svg>
