<svg width="24" height="24" viewBox="0 0 24 24" fill="none" xmlns="http://www.w3.org/2000/svg">
<circle cx="12" cy="12" r="12" fill="#D4D5D7"/>
<path d="M17.081 8.82802C16.6993 8.99687 16.2945 9.10776 15.88 9.15702C16.3169 8.89574 16.6438 8.48453 16.8 8.00002C16.39 8.24402 15.9405 8.41502 15.472 8.50752C15.1573 8.17081 14.7402 7.94751 14.2855 7.87232C13.8308 7.79713 13.364 7.87427 12.9576 8.09175C12.5513 8.30923 12.2282 8.65487 12.0386 9.07492C11.8489 9.49498 11.8034 9.96591 11.909 10.4145C11.0775 10.3729 10.2642 10.1568 9.52164 9.78036C8.77912 9.40393 8.12406 8.87555 7.599 8.22952C7.41314 8.54875 7.31547 8.91164 7.316 9.28102C7.316 10.006 7.685 10.6465 8.246 11.0215C7.914 11.0111 7.58931 10.9214 7.299 10.76V10.786C7.2991 11.2689 7.46618 11.7368 7.77192 12.1106C8.07766 12.4843 8.50324 12.7408 8.9765 12.8365C8.6683 12.92 8.34515 12.9324 8.0315 12.8725C8.16493 13.2881 8.425 13.6516 8.77529 13.9121C9.12558 14.1725 9.54856 14.3169 9.985 14.325C9.55124 14.6657 9.05458 14.9175 8.52344 15.0661C7.99229 15.2147 7.43706 15.2572 6.8895 15.191C7.84534 15.8057 8.95804 16.1321 10.0945 16.131C13.941 16.131 16.0445 12.9445 16.0445 10.181C16.0445 10.091 16.042 10 16.038 9.91102C16.4474 9.61511 16.8008 9.24853 17.0815 8.82852L17.081 8.82802Z" fill="#121212"/>
</svg>
