<svg width="15" height="15" viewBox="0 0 15 15" fill="none" xmlns="http://www.w3.org/2000/svg">
<path d="M9.56245 3.46882C9.08743 3.46874 8.63136 3.65515 8.29239 3.98793C7.95342 4.3207 7.75863 4.77326 7.74995 5.2482L7.73245 6.23257C7.73143 6.28542 7.71924 6.33746 7.69669 6.38527C7.67414 6.43308 7.64174 6.47559 7.6016 6.51C7.56147 6.5444 7.51452 6.56994 7.46382 6.58492C7.41313 6.59991 7.35984 6.604 7.30745 6.59695L6.33183 6.46445C5.04808 6.28945 3.81808 5.6982 2.63808 4.71507C2.26433 6.78382 2.99433 8.21695 4.75245 9.32257L5.84433 10.0088C5.89621 10.0414 5.9393 10.0862 5.96986 10.1394C6.00041 10.1925 6.01748 10.2523 6.01957 10.3135C6.02167 10.3747 6.00873 10.4356 5.98188 10.4906C5.95504 10.5457 5.9151 10.5934 5.86558 10.6294L4.87058 11.3563C5.46245 11.3932 6.02433 11.3669 6.49058 11.2744C9.43933 10.6857 11.4 8.46695 11.4 4.80695C11.4 4.5082 10.7675 3.46882 9.56245 3.46882ZM6.49995 5.22507C6.51086 4.6226 6.69926 4.03674 7.04155 3.54084C7.38384 3.04493 7.86483 2.66102 8.42427 2.43718C8.98372 2.21333 9.59677 2.1595 10.1867 2.28241C10.7766 2.40533 11.3171 2.69954 11.7406 3.1282C12.185 3.12507 12.5631 3.23757 13.4087 2.72507C13.1993 3.75007 13.0962 4.19507 12.65 4.80695C12.65 9.5832 9.71433 11.9057 6.73558 12.5001C4.69308 12.9076 1.72308 12.2382 0.871826 11.3494C1.30558 11.3157 3.06808 11.1263 4.08683 10.3807C3.22495 9.81257 -0.205674 7.79382 2.0487 2.36632C3.10683 3.60195 4.17995 4.4432 5.26745 4.88945C5.9912 5.18632 6.1687 5.18007 6.50058 5.2257L6.49995 5.22507Z" fill="#0D0D0D"/>
</svg>
